# xmcd
#
# Track frame offsets:
# 150
# 13019
# 25989
# 40317
# 55805
# 71085
# 87970
# 101810
# 117059
# 132386
# 147658
# 163467
# 176849
# 189696
#
# Disc length: 2725 seconds
#
#
# Revision: 5
# Processed by: cddbd v1.5.1PL2 Copyright (c) Steve Scherf et al.
# Submitted via: FreeRIP 2.943 
#
DISCID=d40aa30e
DTITLE=Rio Negro and Solimões - Clube do Batidão - Clube do Batidão
DYEAR=2005
DGENRE=Sertanejo
TTITLE0=Balançou, sacudiu
TTITLE1=Clube do batidão
TTITLE2=Ajeite o trem aí
TTITLE3=Casa, comida
TTITLE4=Sozinho outra vez
TTITLE5=Ela foi embora
TTITLE6=Festa de peão
TTITLE7=Deus me livre
TTITLE8=Você chegou e abalou
TTITLE9=Tô mal
TTITLE10=O carro dela quebrou
TTITLE11=Apuros
TTITLE12=Eu de cá, você de lá
TTITLE13=O amor me pegou
EXTD=
EXTT0=
EXTT1=
EXTT2=
EXTT3=
EXTT4=
EXTT5=
EXTT6=
EXTT7=
EXTT8=
EXTT9=
EXTT10=
EXTT11=
EXTT12=
EXTT13=
PLAYORDER=
